<mxfile host="app.diagrams.net" agent="Mozilla/5.0 (Windows NT 10.0; Win64; x64) AppleWebKit/537.36 (KHTML, like Gecko) Chrome/137.0.0.0 Safari/537.36 OPR/121.0.0.0" version="28.2.4">
  <diagram name="Page-1" id="V5HHT-GoB_55DoYzFB_H">
    <mxGraphModel dx="847" dy="510" grid="1" gridSize="10" guides="1" tooltips="1" connect="1" arrows="1" fold="1" page="1" pageScale="1" pageWidth="850" pageHeight="1100" math="0" shadow="0">
      <root>
        <mxCell id="0" />
        <mxCell id="1" parent="0" />
        <mxCell id="qP_1205r4j4YUAk-k60e-1" value="" style="rounded=0;whiteSpace=wrap;html=1;" vertex="1" parent="1">
          <mxGeometry x="160" y="80" width="480" height="360" as="geometry" />
        </mxCell>
        <mxCell id="s0Tq6XbkMB9VPL9nppUV-2" value="" style="rounded=0;whiteSpace=wrap;html=1;" parent="1" vertex="1">
          <mxGeometry x="280" y="120" width="320" height="300" as="geometry" />
        </mxCell>
        <mxCell id="s0Tq6XbkMB9VPL9nppUV-8" style="edgeStyle=orthogonalEdgeStyle;rounded=0;orthogonalLoop=1;jettySize=auto;html=1;entryX=0;entryY=0.5;entryDx=0;entryDy=0;" parent="1" source="s0Tq6XbkMB9VPL9nppUV-1" target="s0Tq6XbkMB9VPL9nppUV-5" edge="1">
          <mxGeometry relative="1" as="geometry" />
        </mxCell>
        <mxCell id="s0Tq6XbkMB9VPL9nppUV-9" style="edgeStyle=orthogonalEdgeStyle;rounded=0;orthogonalLoop=1;jettySize=auto;html=1;entryX=0;entryY=0.5;entryDx=0;entryDy=0;" parent="1" source="s0Tq6XbkMB9VPL9nppUV-1" target="s0Tq6XbkMB9VPL9nppUV-6" edge="1">
          <mxGeometry relative="1" as="geometry" />
        </mxCell>
        <mxCell id="s0Tq6XbkMB9VPL9nppUV-10" style="edgeStyle=orthogonalEdgeStyle;rounded=0;orthogonalLoop=1;jettySize=auto;html=1;entryX=0;entryY=0.5;entryDx=0;entryDy=0;" parent="1" source="s0Tq6XbkMB9VPL9nppUV-1" target="s0Tq6XbkMB9VPL9nppUV-7" edge="1">
          <mxGeometry relative="1" as="geometry" />
        </mxCell>
        <mxCell id="s0Tq6XbkMB9VPL9nppUV-1" value="Admin" style="shape=umlActor;verticalLabelPosition=bottom;verticalAlign=top;html=1;outlineConnect=0;" parent="1" vertex="1">
          <mxGeometry x="200" y="160" width="30" height="60" as="geometry" />
        </mxCell>
        <mxCell id="s0Tq6XbkMB9VPL9nppUV-3" value="Menu" style="text;html=1;align=center;verticalAlign=middle;whiteSpace=wrap;rounded=0;" parent="1" vertex="1">
          <mxGeometry x="410" y="90" width="60" height="30" as="geometry" />
        </mxCell>
        <mxCell id="s0Tq6XbkMB9VPL9nppUV-5" value="Admin Page" style="ellipse;whiteSpace=wrap;html=1;" parent="1" vertex="1">
          <mxGeometry x="395" y="140" width="90" height="70" as="geometry" />
        </mxCell>
        <mxCell id="s0Tq6XbkMB9VPL9nppUV-6" value="Profile Page" style="ellipse;whiteSpace=wrap;html=1;" parent="1" vertex="1">
          <mxGeometry x="395" y="230" width="90" height="70" as="geometry" />
        </mxCell>
        <mxCell id="s0Tq6XbkMB9VPL9nppUV-7" value="PTC Bucks" style="ellipse;whiteSpace=wrap;html=1;" parent="1" vertex="1">
          <mxGeometry x="395" y="320" width="90" height="70" as="geometry" />
        </mxCell>
      </root>
    </mxGraphModel>
  </diagram>
</mxfile>
